<svg xmlns="http://www.w3.org/2000/svg" viewBox="0 0 1199.1 638.9" role="img" aria-label="Meira Air Scent"><title>Meira Air Scent</title><g transform="translate(-177.1 -341.3)" fill="#141C27"><path fill-rule="evenodd" d="M 775.7 387.2 C 694.7 486.6 867.2 541.6 757 638.8 C 838.1 539.4 665.5 484.5 775.7 387.2 Z M 775.7 387.2 "/><path fill-rule="evenodd" d="M 796.4 341.3 C 715.4 440.8 887.9 495.7 777.7 592.9 C 858.7 493.5 686.2 438.6 796.4 341.3 Z M 796.4 341.3 "/><path transform="translate(163.4 854.7)" d="M 47.5 -206.3 L 47.5 -30.2 C 47.9 -21.2 50.9 -14.4 56.7 -9.6 C 62.5 -4.8 69.9 -2.5 78.8 -2.5 L 78.8 0 L 13.7 0 L 13.7 -2.5 C 23.4 -2.5 31.1 -4.9 36.7 -9.9 C 42.3 -14.8 45 -21.6 45 -30.2 L 45 -206.3 C 45 -213.6 43.5 -219.2 40.4 -223 C 37.3 -226.9 33.6 -229.6 29.4 -231.1 C 25.2 -232.7 21.5 -233.6 18.4 -233.9 C 15.3 -234.1 13.7 -234.3 13.7 -234.3 L 13.7 -236.8 L 95.3 -236.8 L 167 -71.4 L 238.7 -236.8 L 326 -236.8 L 326 -234 C 326 -234 324.5 -233.9 321.3 -233.7 C 318.2 -233.5 314.6 -232.6 310.5 -231 C 306.4 -229.3 302.8 -226.5 299.6 -222.6 C 296.5 -218.7 295 -212.9 295 -205.2 L 295 -30.2 C 295.3 -21.2 298.4 -14.4 304.2 -9.6 C 309.9 -4.8 317.3 -2.5 326.3 -2.5 L 326.3 0 L 207.6 0 L 207.6 -2.5 C 217.3 -2.5 225 -4.9 230.6 -9.9 C 236.2 -14.8 239 -21.6 239 -30.2 L 239 -231.3 L 137.9 2.2 Z M 47.5 -206.3 "/><path transform="translate(480.6 854.7)" d="M 13.7 -2.5 C 23.8 -2.5 31.7 -5.1 37.5 -10.3 C 43.3 -15.5 46.1 -22.6 46.1 -31.6 L 46.1 -205.2 C 46.1 -214.3 43.3 -221.5 37.5 -226.6 C 31.7 -231.7 23.8 -234.3 13.7 -234.3 L 13.7 -236.8 L 200.2 -236.8 L 209.6 -175.8 L 207.4 -174.7 L 206.5 -179.6 C 206 -182.4 204.8 -186 203.1 -190.6 C 201.4 -195.2 198.7 -200 195 -204.9 C 191.3 -209.8 186.4 -214.6 180.3 -219 C 174.2 -223.5 166.4 -227.2 157.1 -230 C 147.8 -232.9 136.4 -234.3 123 -234.3 L 103.3 -234.3 L 103 -125.5 L 144.2 -125.5 C 150.6 -125.7 155.6 -127 159.3 -129.4 C 163 -131.7 165.7 -134.7 167.5 -138.2 C 169.4 -141.6 170.6 -144.9 171.1 -148 C 171.7 -151.1 171.9 -153.5 171.9 -155.2 L 171.9 -156.5 L 174.4 -156.5 L 174.4 -91.7 L 171.9 -91.7 L 171.9 -93.1 C 171.9 -94.8 171.7 -97.1 171.1 -100.2 C 170.6 -103.4 169.4 -106.7 167.5 -110.1 C 165.7 -113.6 163 -116.6 159.3 -119.1 C 155.6 -121.5 150.6 -122.9 144.2 -123 L 103 -123 L 103 -31.6 C 103 -22.6 105.9 -15.5 111.6 -10.3 C 117.4 -5.1 125.3 -2.5 135.4 -2.5 C 159 -2.5 178.8 -7.4 194.6 -17.3 C 210.4 -27.2 221.6 -42.1 228.2 -62.1 L 230.7 -62.1 L 212.6 0 L 13.7 0 Z M 13.7 -2.5 "/><path transform="translate(702.3 854.7)" d="M 13.7 -2.5 C 23.8 -2.5 31.7 -5.1 37.5 -10.3 C 43.3 -15.5 46.1 -22.6 46.1 -31.6 L 46.1 -205.2 C 46.1 -214.3 43.3 -221.5 37.5 -226.6 C 31.7 -231.7 23.8 -234.3 13.7 -234.3 L 13.7 -236.8 L 135.4 -236.8 L 135.4 -234.3 C 125.3 -234.3 117.4 -231.7 111.6 -226.6 C 105.9 -221.5 103 -214.3 103 -205.2 L 103 -31.6 C 103 -22.6 105.9 -15.5 111.6 -10.3 C 117.4 -5.1 125.3 -2.5 135.4 -2.5 L 135.4 0 L 13.7 0 Z M 13.7 -2.5 "/><path transform="translate(828.6 854.7)" d="M 13.7 -2.5 C 24 -2.5 31.9 -4.8 37.6 -9.5 C 43.3 -14.1 46.1 -21.5 46.1 -31.6 L 46.1 -205.2 C 46.1 -211.6 45 -216.7 42.8 -220.4 C 40.6 -224.2 37.9 -227.1 34.7 -229.1 C 31.5 -231.1 28.3 -232.4 25 -233.2 C 21.7 -233.9 19 -234.3 17 -234.3 L 13.7 -234.3 L 13.7 -236.8 L 132.7 -236.8 C 143.8 -236.8 154.5 -235.6 164.8 -233.5 C 175 -231.3 184.2 -227.7 192.4 -222.9 C 200.5 -218 207 -211.7 211.8 -203.9 C 216.5 -196.2 218.9 -186.8 218.9 -175.8 C 218.9 -163.7 215.9 -153.5 210 -145.2 C 204 -136.8 196.3 -130.2 186.8 -125.4 C 177.2 -120.5 166.9 -117.2 155.7 -115.4 C 168.7 -114.6 179.2 -112.5 187 -108.9 C 194.9 -105.3 201.4 -99.6 206.5 -91.6 C 211.7 -83.6 216.4 -72.6 220.8 -58.5 C 225.6 -43.9 230.3 -32.5 234.8 -24.3 C 239.4 -16.1 244.6 -10.5 250.3 -7.3 C 256.1 -4.1 263.1 -2.5 271.4 -2.5 L 271.4 0 L 221.9 0 C 211.7 0 201.7 -4.3 192.1 -12.9 C 182.5 -21.5 173.4 -36.7 164.8 -58.5 C 160.8 -69.1 157.8 -78 155.9 -85 C 153.9 -92.1 152.2 -97.6 150.8 -101.8 C 149.3 -105.9 147.4 -108.8 145.2 -110.5 C 142.9 -112.3 139.2 -113.2 134.3 -113.2 L 103 -113.2 L 103 -31 C 103 -21.3 105.3 -14.1 110 -9.5 C 114.7 -4.8 122.1 -2.5 132.4 -2.5 L 132.4 0 L 13.7 0 Z M 132.7 -115.9 C 139.2 -115.9 144.8 -118.6 149.3 -123.9 C 153.8 -129.2 157.1 -136.4 159.4 -145.4 C 161.7 -154.5 162.9 -164.6 162.9 -175.8 C 162.9 -186.9 161.7 -196.9 159.4 -205.7 C 157.1 -214.5 153.8 -221.5 149.3 -226.6 C 144.8 -231.7 139.2 -234.3 132.7 -234.3 L 103 -234.3 L 103 -115.9 Z M 132.7 -115.9 "/><path transform="translate(1090.9 854.7)" d="M 13.7 -2.5 L 18.4 -2.5 C 21.5 -2.8 25.8 -4.2 31.2 -6.7 C 36.6 -9.2 42.5 -13.9 48.9 -20.7 C 55.3 -27.6 61.5 -37.8 67.6 -51.4 L 123.6 -174.1 L 151.9 -236.8 L 245.5 -31.3 C 249.6 -22.7 254.2 -16.3 259.5 -12.2 C 264.9 -8.1 269.8 -5.5 274.4 -4.4 C 279 -3.3 282.2 -2.7 284 -2.5 L 285.4 -2.5 L 285.4 0 L 173.9 0 L 173.9 -2.5 L 175.2 -2.5 C 176.7 -2.5 178.7 -2.8 181.3 -3.4 C 183.8 -4.1 186.3 -5.3 188.5 -7.1 C 190.8 -9 192.2 -11.8 192.7 -15.7 C 193.1 -19.5 191.8 -24.7 188.7 -31.3 L 170.6 -71.1 L 79.4 -71.1 L 70.3 -51.4 C 66.1 -42.2 63.5 -34.6 62.5 -28.7 C 61.5 -22.8 61.5 -18 62.5 -14.4 C 63.5 -10.8 65.1 -8.2 67.2 -6.6 C 69.3 -4.9 71.3 -3.8 73.3 -3.3 C 75.3 -2.7 76.8 -2.5 77.7 -2.5 L 78.5 -2.5 L 78.5 0 L 13.7 0 Z M 169.5 -73.6 L 125 -171.1 L 80.5 -73.6 Z M 169.5 -73.6 "/><path transform="translate(610.9 979.8)" d="M 23.9 -7.6 L 9 -7.6 L 6.3 0 L 1.6 0 L 13.9 -33.8 L 19 -33.8 L 31.3 0 L 26.6 0 Z M 22.6 -11.2 L 16.4 -28.3 L 10.3 -11.2 Z M 22.6 -11.2 "/><path transform="translate(652.5 979.8)" d="M 8.2 -34 L 8.2 0 L 3.8 0 L 3.8 -34 Z M 8.2 -34 "/><path transform="translate(673.3 979.8)" d="M 21.7 0 L 13.6 -13.9 L 8.2 -13.9 L 8.2 0 L 3.8 0 L 3.8 -34 L 14.7 -34 C 17.3 -34 19.5 -33.6 21.2 -32.7 C 23 -31.8 24.3 -30.6 25.2 -29.1 C 26.1 -27.6 26.5 -25.9 26.5 -24 C 26.5 -21.7 25.9 -19.6 24.5 -17.8 C 23.2 -16 21.1 -14.8 18.4 -14.2 L 27 0 Z M 8.2 -17.5 L 14.7 -17.5 C 17.1 -17.5 18.9 -18.1 20.1 -19.2 C 21.3 -20.4 22 -22 22 -24 C 22 -26 21.4 -27.6 20.2 -28.7 C 19 -29.8 17.2 -30.3 14.7 -30.3 L 8.2 -30.3 Z M 8.2 -17.5 "/><path transform="translate(733.5 979.8)" d="M 14.5 0.3 C 12.3 0.3 10.3 -0.1 8.5 -0.8 C 6.7 -1.6 5.4 -2.8 4.3 -4.2 C 3.3 -5.6 2.8 -7.2 2.8 -9.1 L 7.5 -9.1 C 7.7 -7.5 8.3 -6.1 9.5 -5 C 10.6 -4 12.3 -3.4 14.5 -3.4 C 16.6 -3.4 18.3 -3.9 19.5 -5 C 20.8 -6.1 21.4 -7.4 21.4 -9.1 C 21.4 -10.4 21 -11.4 20.3 -12.2 C 19.6 -13.1 18.7 -13.7 17.6 -14.1 C 16.5 -14.5 15.1 -15 13.3 -15.5 C 11 -16.1 9.2 -16.6 7.9 -17.2 C 6.5 -17.8 5.4 -18.7 4.4 -20 C 3.4 -21.2 3 -22.9 3 -25 C 3 -26.9 3.4 -28.5 4.4 -30 C 5.3 -31.4 6.7 -32.5 8.4 -33.3 C 10.1 -34 12 -34.4 14.2 -34.4 C 17.4 -34.4 20 -33.6 22.1 -32 C 24.1 -30.5 25.3 -28.3 25.5 -25.7 L 20.6 -25.7 C 20.5 -27 19.8 -28.1 18.6 -29.1 C 17.4 -30.1 15.8 -30.6 13.8 -30.6 C 12 -30.6 10.4 -30.2 9.3 -29.2 C 8.1 -28.2 7.5 -26.9 7.5 -25.2 C 7.5 -23.9 7.9 -22.9 8.6 -22.1 C 9.3 -21.4 10.1 -20.8 11.1 -20.4 C 12.2 -20 13.6 -19.5 15.5 -19 C 17.7 -18.4 19.5 -17.7 20.9 -17.1 C 22.2 -16.5 23.4 -15.6 24.4 -14.4 C 25.4 -13.1 25.9 -11.4 25.9 -9.3 C 25.9 -7.6 25.4 -6 24.5 -4.6 C 23.7 -3.1 22.4 -1.9 20.6 -1 C 18.9 -0.1 16.9 0.3 14.5 0.3 Z M 14.5 0.3 "/><path transform="translate(770.9 979.8)" d="M 2.1 -17 C 2.1 -20.3 2.8 -23.3 4.3 -26 C 5.8 -28.6 7.9 -30.7 10.5 -32.2 C 13 -33.7 15.9 -34.4 19.1 -34.4 C 22.8 -34.4 26 -33.5 28.8 -31.8 C 31.5 -30 33.6 -27.4 34.8 -24.1 L 29.5 -24.1 C 28.6 -26.2 27.2 -27.8 25.4 -28.9 C 23.7 -30 21.5 -30.5 19.1 -30.5 C 16.7 -30.5 14.6 -30 12.7 -28.9 C 10.8 -27.8 9.3 -26.2 8.2 -24.2 C 7.2 -22.1 6.6 -19.8 6.6 -17 C 6.6 -14.3 7.2 -12 8.2 -9.9 C 9.3 -7.9 10.8 -6.3 12.7 -5.2 C 14.6 -4.1 16.7 -3.6 19.1 -3.6 C 21.5 -3.6 23.7 -4.1 25.4 -5.2 C 27.2 -6.3 28.6 -7.9 29.5 -9.9 L 34.8 -9.9 C 33.6 -6.7 31.5 -4.1 28.8 -2.4 C 26 -0.6 22.8 0.3 19.1 0.3 C 15.9 0.3 13 -0.4 10.5 -1.9 C 7.9 -3.4 5.8 -5.5 4.3 -8.1 C 2.8 -10.7 2.1 -13.7 2.1 -17 Z M 2.1 -17 "/><path transform="translate(817.3 979.8)" d="M 8.2 -30.4 L 8.2 -19 L 20.6 -19 L 20.6 -15.4 L 8.2 -15.4 L 8.2 -3.7 L 22 -3.7 L 22 0 L 3.8 0 L 3.8 -34 L 22 -34 L 22 -30.4 Z M 8.2 -30.4 "/><path transform="translate(851.1 979.8)" d="M 30.5 0 L 26 0 L 8.2 -27.1 L 8.2 0 L 3.8 0 L 3.8 -34 L 8.2 -34 L 26 -7 L 26 -34 L 30.5 -34 Z M 30.5 0 "/><path transform="translate(894.2 979.8)" d="M 24.7 -34 L 24.7 -30.4 L 15.4 -30.4 L 15.4 0 L 11 0 L 11 -30.4 L 1.7 -30.4 L 1.7 -34 Z M 24.7 -34 "/></g></svg>
